<svg width="24" height="24" viewBox="0 0 24 24" fill="none" xmlns="http://www.w3.org/2000/svg">
<g clip-path="url(#clip0_117_4)">
<path d="M20.6835 4.93427L20.689 4.9279L20.694 4.92118C21.0721 4.41709 21.0289 3.69917 20.5679 3.24462C20.0651 2.74877 19.2555 2.75487 18.7599 3.2577C18.7599 3.25771 18.7599 3.25771 18.7599 3.25772L11.955 10.1604L5.05534 3.35629L5.0494 3.35043L5.04309 3.34498L4.93717 3.25363L4.93071 3.24806L4.92389 3.24294C4.41988 2.86496 3.70192 2.90798 3.24727 3.369C2.75148 3.87176 2.75699 4.68127 3.25976 5.17708L10.1595 11.9813L3.35566 18.8844L3.34974 18.8904L3.34424 18.8968L3.25294 19.0028L3.24746 19.0092L3.24241 19.0159C2.86431 19.52 2.90754 20.2379 3.36848 20.6925C3.87131 21.1884 4.68096 21.1822 5.17659 20.6794L11.98 13.7766L18.8836 20.5847L18.8896 20.5906L18.8959 20.596L19.0018 20.6874L19.0083 20.693L19.0151 20.6981C19.519 21.076 20.237 21.033 20.6917 20.572C21.1875 20.0692 21.182 19.2597 20.6792 18.7639L13.7755 11.9558L20.5808 5.05271L20.5867 5.0467L20.5922 5.0403L20.6835 4.93427Z" fill="#555555" stroke="#555555" stroke-width="0.5"/>
</g>
<defs>
<clipPath id="clip0_117_4">
<rect width="24" height="24" fill="white"/>
</clipPath>
</defs>
</svg>

