<svg width="96" height="96" viewBox="0 0 96 96" fill="none" xmlns="http://www.w3.org/2000/svg">
<g clip-path="url(#clip0_28_303)">
<path d="M80 24H71.28C71.72 22.76 72 21.4 72 20C72 13.36 66.64 8 60 8C55.8 8 52.16 10.16 50 13.4L48 16.08L46 13.36C43.84 10.16 40.2 8 36 8C29.36 8 24 13.36 24 20C24 21.4 24.28 22.76 24.72 24H16C11.56 24 8.04 27.56 8.04 32L8 76C8 80.44 11.56 84 16 84H80C84.44 84 88 80.44 88 76V32C88 27.56 84.44 24 80 24ZM60 16C62.2 16 64 17.8 64 20C64 22.2 62.2 24 60 24C57.8 24 56 22.2 56 20C56 17.8 57.8 16 60 16ZM36 16C38.2 16 40 17.8 40 20C40 22.2 38.2 24 36 24C33.8 24 32 22.2 32 20C32 17.8 33.8 16 36 16ZM80 76H16V68H80V76ZM80 56H16V32H36.32L28 43.32L34.48 48L48 29.6L61.52 48L68 43.32L59.68 32H80V56Z" fill="#FFC600"/>
</g>
<defs>
<clipPath id="clip0_28_303">
<rect width="96" height="96" fill="white"/>
</clipPath>
</defs>
</svg>
