<svg width="360" height="72" viewBox="0 0 360 72" fill="none" xmlns="http://www.w3.org/2000/svg">
<path d="M58.8 48C58.8 56.85 53.7 62.25 45.6 63.9C43.35 64.35 39.6 64.35 37.05 64.35L17.4 64.2V71.7L0 57.45L17.4 43.2V50.7L39.45 50.85C41.55 50.85 42.45 49.65 42.45 48.45C42.45 46.2 40.35 45.45 34.05 42.45C24 37.65 16.2 34.2 16.2 23.25C16.2 14.7 22.35 8.84998 31.35 7.64998C33.15 7.34998 36.6 7.34998 38.7 7.34998C43.2 7.34998 55.8 7.64998 55.8 7.64998V21.3L35.1 21C33.3 21 32.4 22.2 32.4 23.4C32.4 25.2 33.9 25.95 39.75 28.65C52.05 34.35 58.8 37.5 58.8 48ZM91.35 46.95C91.35 49.5 89.1 51.6 85.05 51.6C80.7 51.6 78.75 49.5 78.75 46.95V7.49998H61.8V48.3C61.8 57.3 69.3 65.85 84.9 65.85C99.75 65.85 108 57.45 108 48.3V7.49998H91.35V46.95ZM160.05 47.25C160.05 58.5 152.4 64.65 141.3 64.65H113.25V7.49998H140.25C152.4 7.49998 158.55 14.25 158.55 23.1C158.55 27.6 156.45 31.5 152.25 34.35C157.2 37.05 160.05 41.25 160.05 47.25ZM129.9 30.15H137.7C140.7 30.15 142.05 28.05 142.05 25.05C142.05 21.9 140.7 19.95 137.7 19.95H129.9V30.15ZM143.1 46.5C143.1 43.05 141.45 41.1 138.45 41.1H129.9V51.9H138.45C141.6 51.9 143.1 49.8 143.1 46.5Z" fill="#F2B700"/>
<path d="M216.15 7.5H232.8V47.7C232.8 57 226.2 65.4 212.25 65.4C206.25 65.4 201.6 63.6 198.3 60.9C195 63.6 190.5 65.4 184.95 65.4C170.1 65.4 163.95 57 163.95 47.7V7.5H180.6V47.4C180.6 49.05 181.5 51.15 185.25 51.15C189 51.15 190.05 49.2 190.05 47.4V7.5H206.7V47.4C206.7 49.05 207.6 51.15 211.35 51.15C215.1 51.15 216.15 49.2 216.15 47.4V7.5ZM304.5 30V7.5H288V31.5C288 39.45 293.4 45.45 302.55 48V64.5H319.5V48C328.8 45.45 333.9 39.45 333.9 31.5V22.65C333.9 21.75 334.35 21.3 335.25 21.3H342.6V28.5L360 14.25L342.6 0V7.2H331.05C321.3 7.2 317.25 12.9 317.25 21V30C317.25 32.1 315.75 34.65 310.8 34.65C306 34.65 304.5 32.1 304.5 30ZM283.8 23.85V64.65H267.15V48H254.55V64.5H237.9V23.85C237.9 13.65 246.3 5.85 260.85 5.85C275.25 5.85 283.8 13.5 283.8 23.85ZM267.15 34.95V24.75C267.15 22.05 265.2 20.1 260.85 20.1C256.35 20.1 254.55 22.05 254.55 24.75V34.95H267.15Z" fill="#008938"/>
</svg>
