<svg width="24" height="24" viewBox="0 0 24 24" fill="none" xmlns="http://www.w3.org/2000/svg">
<path d="M12.8421 3.62441L12.8413 3.61266L12.8397 3.60099C12.7667 3.06363 12.3066 2.65 11.7496 2.65C11.1419 2.65 10.6496 3.14278 10.6498 3.75021C10.6498 3.75022 10.6498 3.75023 10.6498 3.75023L10.6509 10.65H3.75195H3.74027L3.72862 10.6508L3.62685 10.6576L3.61493 10.6584L3.6031 10.66C3.06587 10.7329 2.65195 11.1928 2.65195 11.75C2.65195 12.3575 3.14443 12.85 3.75195 12.85H10.651L10.653 19.7495L10.653 19.7613L10.6538 19.7731L10.6607 19.8749L10.6615 19.8866L10.663 19.8983C10.736 20.4357 11.1961 20.8493 11.7532 20.8493C12.3608 20.8493 12.8531 20.3564 12.853 19.749L12.851 12.85H19.7541H19.7657L19.7774 12.8492L19.8792 12.8424L19.8911 12.8416L19.9029 12.84C20.4401 12.7671 20.8541 12.3072 20.8541 11.75C20.8541 11.1425 20.3616 10.65 19.7541 10.65H12.8509L12.8498 3.74979L12.8498 3.73797L12.849 3.72617L12.8421 3.62441Z" fill="#FFC600" stroke="#FFC600" stroke-width="0.7"/>
</svg>


